<?xml version="1.0" encoding="UTF-8" standalone="no"?>
<!DOCTYPE svg PUBLIC "-//W3C//DTD SVG 1.1//EN" "http://www.w3.org/Graphics/SVG/1.1/DTD/svg11.dtd">
<svg width="100%" height="100%" viewBox="0 0 474 520" version="1.1" xmlns="http://www.w3.org/2000/svg" xmlns:xlink="http://www.w3.org/1999/xlink" xml:space="preserve" xmlns:serif="http://www.serif.com/" style="fill-rule:evenodd;clip-rule:evenodd;stroke-linejoin:round;stroke-miterlimit:2;">
    <g transform="matrix(1,0,0,1,242.778,463.459)">
        <path d="M0,33.409C6.966,35.817 24.889,38.753 48.797,39.441C76.761,40.26 94.053,37.318 98.662,34.723C98.38,26.379 86.205,6.624 80.183,-3.149C79.375,-4.458 78.628,-5.675 77.911,-6.851C74.452,-5.899 70.967,-4.967 67.395,-4.101C53.806,-0.807 40.914,1.708 28.65,3.577C14.756,15.729 3.429,27.457 0,33.409" style="fill:rgb(232,146,103);fill-rule:nonzero;"/>
    </g>
    <g transform="matrix(1,0,0,1,320.689,514.584)">
        <path d="M0,-57.976C0.717,-56.8 1.465,-55.583 2.272,-54.274C8.294,-44.501 20.469,-24.747 20.751,-16.402C16.142,-13.807 -1.149,-10.866 -29.113,-11.684C-53.021,-12.372 -70.945,-15.308 -77.911,-17.716C-74.481,-23.668 -63.154,-35.396 -49.261,-47.548C-58.966,-46.069 -68.238,-45.033 -77.143,-44.343C-99.741,-21.222 -95.734,-13.187 -94.151,-10.021C-92.488,-6.694 -89.026,0.23 -49.525,3.676C-39.659,4.538 -29.551,4.963 -20.01,4.963C-8.266,4.963 2.619,4.317 11.108,3.041C22.229,1.368 35.218,-1.893 36.962,-12.356C39.038,-24.805 28.846,-42.628 16.331,-62.937C16.33,-62.938 16.33,-62.938 16.329,-62.939C11.03,-61.175 5.594,-59.516 0,-57.976" style="fill:rgb(29,9,41);fill-rule:nonzero;"/>
    </g>
    <g transform="matrix(1,0,0,1,110.68,464.123)">
        <path d="M0,18.984C6.966,21.392 24.89,24.329 48.798,25.016C76.764,25.837 94.053,22.895 98.663,20.298C98.554,17.087 96.676,12.179 94.072,6.807C66.086,5.499 43.001,0.234 24.166,-6.853C12.367,3.817 3.051,13.689 0,18.984" style="fill:rgb(232,146,103);fill-rule:nonzero;"/>
    </g>
    <g transform="matrix(1,0,0,1,204.752,484.868)">
        <path d="M0,-13.938C2.604,-8.566 4.481,-3.659 4.59,-0.447C-0.019,2.15 -17.308,5.091 -45.274,4.271C-69.183,3.583 -87.106,0.647 -94.072,-1.761C-91.021,-7.056 -81.706,-16.928 -69.906,-27.598C-75.92,-29.862 -81.518,-32.296 -86.687,-34.857C-116.613,-6.725 -112.035,2.49 -110.313,5.935C-108.649,9.262 -105.188,16.185 -65.687,19.632C-55.82,20.494 -45.712,20.919 -36.172,20.919C-24.427,20.919 -13.542,20.273 -5.053,18.997C6.068,17.324 19.057,14.062 20.801,3.599C21.628,-1.358 20.485,-7.18 18.049,-13.661C16.566,-13.639 15.049,-13.587 13.591,-13.587C8.921,-13.587 4.422,-13.732 0,-13.938" style="fill:rgb(29,9,41);fill-rule:nonzero;"/>
    </g>
    <g transform="matrix(1,0,0,1,464.717,256.333)">
        <path d="M0,-41.385C-1.279,-45.474 -5.467,-47.904 -9.656,-46.985C-11.188,-46.649 -157.793,-15.039 -228.702,-59.463C-210.464,-81.031 -200.522,-108.076 -200.522,-136.619C-200.522,-202.629 -254.225,-256.333 -320.236,-256.333C-386.248,-256.333 -439.95,-202.629 -439.95,-136.619C-439.95,-115.32 -433.918,-94.161 -423.782,-76.419C-419.169,-79.073 -413.579,-81.364 -408.717,-84.259C-411.348,-88.883 -414.879,-95.049 -416.763,-100.042C-422.432,-103.72 -426.189,-110.094 -426.189,-117.355C-426.189,-121.354 -425.033,-125.075 -423.064,-128.237C-423.286,-131.011 -423.437,-133.801 -423.437,-136.619C-423.437,-193.525 -377.142,-239.821 -320.236,-239.821C-263.331,-239.821 -217.035,-193.525 -217.035,-136.619C-217.035,-109.19 -227.686,-83.363 -247.022,-63.895C-248.694,-62.212 -249.562,-59.893 -249.403,-57.528C-249.248,-55.163 -248.079,-52.978 -246.2,-51.533C-180.912,-1.295 -47.553,-22.806 -13.787,-29.297C-8.691,-8.721 1.368,48.732 -28.096,100.788C-51.859,142.773 -95.711,171.771 -158.436,186.977C-241.239,207.051 -309.97,200.657 -357.203,168.485C-402.556,137.594 -414.768,93.542 -418.012,70.032C-424.113,25.798 -404.758,-4.847 -388.08,-22.417C-394.459,-22.827 -401.061,-23.614 -407.862,-24.845C-424.609,-3.939 -440.436,28.293 -434.368,72.287C-428.213,116.91 -403.478,156.946 -366.5,182.132C-360.705,186.079 -354.091,189.993 -346.652,193.678C-341.483,196.239 -335.886,198.674 -329.872,200.937C-311.037,208.024 -287.952,213.289 -259.965,214.597C-255.543,214.803 -251.044,214.948 -246.375,214.948C-244.917,214.948 -243.399,214.896 -241.916,214.875C-235.252,214.78 -228.338,214.463 -221.171,213.908C-212.267,213.219 -202.995,212.182 -193.29,210.703C-181.026,208.834 -168.133,206.319 -154.544,203.025C-150.973,202.159 -147.487,201.227 -144.029,200.275C-138.435,198.735 -132.999,197.076 -127.7,195.312C-74.502,177.601 -36.204,148.637 -13.726,108.922C23.494,43.161 4.238,-27.822 0,-41.385" style="fill:rgb(29,9,41);fill-rule:nonzero;"/>
    </g>
    <g transform="matrix(1,0,0,1,136.225,302.115)">
        <path d="M0,-139.745C-12.919,-139.745 -23.393,-150.218 -23.393,-163.138C-23.393,-176.057 -12.919,-186.53 0,-186.53C12.919,-186.53 23.392,-176.057 23.392,-163.138C23.392,-150.218 12.919,-139.745 0,-139.745M314.705,-75.079C280.939,-68.588 147.581,-47.078 82.292,-97.316C80.414,-98.76 79.245,-100.945 79.089,-103.31C78.93,-105.675 79.798,-107.995 81.47,-109.677C100.807,-129.145 111.458,-154.973 111.458,-182.402C111.458,-239.308 65.162,-285.603 8.256,-285.603C5.063,-285.603 -6.847,-285.9 -19.916,-281.725C-37.337,-276.598 -47.904,-269.283 -48.104,-268.789C-76.28,-250.344 -94.945,-218.52 -94.945,-182.402C-94.945,-179.583 -94.794,-176.794 -94.572,-174.019C-90.929,-179.87 -84.458,-183.778 -77.057,-183.778C-65.658,-183.778 -56.417,-174.537 -56.417,-163.138C-56.417,-151.738 -65.658,-142.497 -77.057,-142.497C-81.195,-142.497 -85.041,-143.727 -88.271,-145.824C-86.387,-140.831 -82.855,-134.665 -80.225,-130.041C-70.406,-135.887 -61.677,-143.409 -52.74,-149.367C-49.136,-151.772 -44.283,-150.976 -41.63,-147.55C-41.213,-147.02 -15.107,-114.488 37.935,-109.435C41.348,-109.11 44.205,-106.71 45.113,-103.403C46.021,-100.097 42.672,-100.488 39.904,-98.465C37.784,-96.918 4.577,-67.835 -48.693,-67.835C-52.244,-67.835 -55.883,-67.962 -59.588,-68.2C-76.266,-50.629 -95.621,-19.985 -89.52,24.25C-86.275,47.759 -74.063,91.812 -28.711,122.703C18.522,154.875 87.253,161.268 170.057,141.195C232.781,125.989 276.633,96.991 300.396,55.005C329.86,2.95 319.801,-54.503 314.705,-75.079" style="fill:rgb(242,196,76);fill-rule:nonzero;"/>
    </g>
    <g transform="matrix(1,0,0,1,136.225,115.585)">
        <path d="M0,46.785C12.919,46.785 23.392,36.312 23.392,23.392C23.392,10.473 12.919,0 0,0C-12.919,0 -23.393,10.473 -23.393,23.392C-23.393,36.312 -12.919,46.785 0,46.785" style="fill:rgb(29,9,41);fill-rule:nonzero;"/>
    </g>
    <g transform="matrix(1,0,0,1,79.8081,138.979)">
        <path d="M0,-0.001C0,-11.4 -9.241,-20.641 -20.64,-20.641C-28.041,-20.641 -34.512,-16.734 -38.155,-10.883C-40.124,-7.721 -41.28,-4 -41.28,-0.001C-41.28,7.26 -37.522,13.634 -31.854,17.312C-28.624,19.41 -24.778,20.64 -20.64,20.64C-9.241,20.64 0,11.398 0,-0.001" style="fill:rgb(29,9,41);fill-rule:nonzero;"/>
    </g>
    <g transform="matrix(0,-1,-1,0,149.985,126.594)">
        <path d="M-4.128,-4.128C-6.408,-4.128 -8.256,-2.28 -8.256,-0C-8.256,2.28 -6.408,4.128 -4.128,4.128C-1.848,4.128 -0,2.28 -0,-0C-0,-2.28 -1.848,-4.128 -4.128,-4.128" style="fill:white;fill-rule:nonzero;"/>
    </g>
    <g transform="matrix(0,-1,-1,0,70.1762,126.594)">
        <path d="M-4.128,-4.128C-6.408,-4.128 -8.256,-2.28 -8.256,-0C-8.256,2.28 -6.408,4.128 -4.128,4.128C-1.848,4.128 -0,2.28 -0,-0C-0,-2.28 -1.848,-4.128 -4.128,-4.128" style="fill:white;fill-rule:nonzero;"/>
    </g>
    <g transform="matrix(1,0,0,1,277.955,276.245)">
        <path d="M0,120.049C-148.526,115.333 -167.794,7.628 -170.267,-23.155C-119.528,-36.03 -105.943,-57.518 -101.826,-67.09C-107.864,-62.915 -140.695,-41.964 -190.423,-41.964C-193.974,-41.964 -197.613,-42.091 -201.318,-42.329C-204.656,-38.812 -208.096,-34.758 -211.417,-30.18C-211.719,-29.765 -212.013,-29.324 -212.313,-28.901C-212.844,-28.148 -213.376,-27.399 -213.9,-26.619C-214.486,-25.749 -215.058,-24.846 -215.631,-23.942C-215.858,-23.582 -216.087,-23.23 -216.312,-22.865C-216.944,-21.843 -217.56,-20.793 -218.171,-19.729C-218.326,-19.459 -218.48,-19.191 -218.634,-18.918C-219.267,-17.794 -219.885,-16.646 -220.491,-15.475C-220.542,-15.376 -220.597,-15.284 -220.648,-15.184C-220.645,-15.184 -220.642,-15.184 -220.638,-15.185C-229.319,1.716 -234.933,23.418 -231.25,50.12C-228.005,73.63 -215.793,117.683 -170.441,148.573C-123.208,180.745 -54.477,187.139 28.327,167.066C91.051,151.86 134.903,122.862 158.667,80.876C160.494,77.648 162.168,74.398 163.702,71.138C129.041,98.575 76.62,122.482 0,120.049" style="fill:rgb(191,153,53);fill-rule:nonzero;"/>
    </g>
    <g transform="matrix(1,0,0,1,164.974,204.676)">
        <path d="M0,-18.063C-17.139,-24.491 -34.237,-10.812 -34.406,-10.673C-36.946,-8.608 -40.482,-8.211 -43.396,-9.699C-60.819,-18.582 -72.085,-28.173 -78.111,-34.152C-101.592,-18.126 -125.043,-6.271 -139.459,0.416C-109.265,16.089 -62.953,15.984 -30.601,5.566C-1.696,-3.742 5.222,-13.115 5.418,-14.996C5.404,-15.012 4.453,-16.394 0,-18.063" style="fill:rgb(232,146,103);fill-rule:nonzero;"/>
    </g>
    <g transform="matrix(1,0,0,1,134.373,174.129)">
        <path d="M0,36.113C-32.353,46.531 -78.664,46.636 -108.858,30.964C-94.442,24.276 -70.991,12.421 -47.51,-3.605C-41.485,2.374 -30.218,11.966 -12.795,20.848C-9.882,22.336 -6.345,21.939 -3.805,19.874C-3.636,19.735 13.462,6.056 30.601,12.484C35.054,14.153 36.005,15.535 36.019,15.551C35.822,17.432 28.905,26.805 0,36.113M36.4,-2.977C16.751,-10.345 -1.389,-1.434 -9.651,3.825C-30.232,-7.555 -39.547,-19.268 -39.762,-19.542C-42.474,-23.065 -47.486,-23.811 -51.109,-21.229C-88.323,5.353 -128.781,21.695 -129.187,21.857C-131.896,22.943 -133.834,25.382 -134.277,28.268C-134.721,31.156 -133.605,34.063 -131.345,35.911C-110.635,52.858 -79.763,59.924 -49.596,59.924C-30.103,59.924 -10.906,56.972 5.063,51.83C22.608,46.18 52.101,34.004 52.528,15.926C52.641,11.167 50.695,2.384 36.4,-2.977" style="fill:rgb(29,9,41);fill-rule:nonzero;"/>
    </g>
    <g transform="matrix(1,0,0,1,212.094,405.609)">
        <path d="M0,-34.999C-0.064,-35 -0.129,-35.002 -0.191,-35.002C-4.663,-35.002 -8.339,-31.428 -8.442,-26.934C-8.487,-24.954 -9.146,-24.46 -9.581,-24.132C-13.795,-20.964 -26.784,-22.122 -34.524,-24.171C-36.986,-24.828 -39.609,-24.313 -41.638,-22.781C-61.021,-8.121 -74.141,-23.399 -76.587,-26.632C-79.301,-30.273 -84.442,-31.043 -88.105,-28.348C-91.777,-25.644 -92.562,-20.476 -89.855,-16.803C-89.436,-16.232 -79.36,-2.785 -62.77,-0.374C-61.037,-0.123 -59.306,0.003 -57.575,0.003C-49.943,0.003 -42.358,-2.446 -34.938,-7.311C-26.811,-5.612 -9.818,-3.317 0.32,-10.917C5.238,-14.604 7.917,-20.014 8.065,-26.558C8.17,-31.115 4.558,-34.895 0,-34.999" style="fill:rgb(29,9,41);fill-rule:nonzero;"/>
    </g>
    <g transform="matrix(1,0,0,1,373.618,371.983)">
        <path d="M0,-45.448C-2.994,-48.885 -8.213,-49.242 -11.648,-46.245C-15.085,-43.249 -15.44,-38.034 -12.443,-34.596C-10.646,-32.532 -7.987,-28.367 -10.417,-23.657C-13.677,-17.339 -26.204,-10.814 -50.816,-13.26C-55.317,-13.688 -59.397,-10.396 -59.846,-5.857C-60.295,-1.32 -56.981,2.723 -52.444,3.172C-48.134,3.599 -44.146,3.794 -40.442,3.794C-9.632,3.792 0.981,-9.736 4.257,-16.089C9.151,-25.574 7.52,-36.826 0,-45.448" style="fill:rgb(29,9,41);fill-rule:nonzero;"/>
    </g>
</svg>
