<?xml version="1.0" encoding="UTF-8" standalone="no"?>
<!DOCTYPE svg PUBLIC "-//W3C//DTD SVG 1.1//EN" "http://www.w3.org/Graphics/SVG/1.1/DTD/svg11.dtd">
<svg width="100%" height="100%" viewBox="0 0 300 296" version="1.1" xmlns="http://www.w3.org/2000/svg" xmlns:xlink="http://www.w3.org/1999/xlink" xml:space="preserve" xmlns:serif="http://www.serif.com/" style="fill-rule:evenodd;clip-rule:evenodd;stroke-linejoin:round;stroke-miterlimit:2;">
    <g transform="matrix(1.32864,0,0,1.19786,22.9138,38.5979)">
        <ellipse cx="95" cy="157" rx="95" ry="30" style="fill:rgb(227,232,255);"/>
    </g>
    <g transform="matrix(1,0,0,1,53.4375,18.0361)">
        <g transform="matrix(1,0,0,1,55,54.1316)">
            <path d="M100.311,153.832C102.494,154.577 108.112,155.486 115.607,155.699C124.372,155.953 129.793,155.042 131.237,154.238C131.149,151.655 127.332,145.539 125.445,142.513C125.192,142.107 124.957,141.731 124.733,141.366C123.648,141.661 122.556,141.95 121.436,142.218C117.177,143.238 113.136,144.016 109.291,144.595C104.936,148.358 101.385,151.989 100.311,153.832Z" style="fill:rgb(232,146,103);fill-rule:nonzero;"/>
        </g>
        <g transform="matrix(1,0,0,1,55,54.1316)">
            <path d="M124.735,141.37C124.96,141.734 125.194,142.111 125.447,142.516C127.335,145.542 131.151,151.658 131.239,154.242C129.795,155.045 124.375,155.956 115.609,155.703C108.115,155.49 102.496,154.581 100.313,153.835C101.388,151.992 104.938,148.361 109.293,144.599C106.251,145.056 103.345,145.377 100.553,145.591C93.47,152.749 94.726,155.237 95.222,156.217C95.743,157.248 96.829,159.391 109.211,160.458C112.303,160.725 115.472,160.857 118.462,160.857C122.144,160.857 125.556,160.657 128.217,160.262C131.703,159.744 135.774,158.734 136.321,155.495C136.972,151.64 133.777,146.122 129.854,139.834L129.853,139.833C128.192,140.379 126.488,140.893 124.735,141.37Z" style="fill:rgb(29,9,41);fill-rule:nonzero;"/>
        </g>
        <g transform="matrix(1,0,0,1,55,54.1316)">
            <path d="M58.904,149.582C61.087,150.328 66.706,151.237 74.2,151.45C82.966,151.704 88.386,150.793 89.831,149.989C89.797,148.995 89.208,147.475 88.392,145.812C79.619,145.407 72.383,143.777 66.479,141.583C62.78,144.886 59.86,147.943 58.904,149.582Z" style="fill:rgb(232,146,103);fill-rule:nonzero;"/>
        </g>
        <g transform="matrix(1,0,0,1,55,54.1316)">
            <path d="M88.393,145.799C89.209,147.462 89.797,148.982 89.832,149.976C88.387,150.78 82.967,151.691 74.201,151.437C66.707,151.224 61.088,150.315 58.905,149.569C59.861,147.93 62.781,144.873 66.48,141.57C64.595,140.869 62.84,140.115 61.22,139.322C51.839,148.032 53.274,150.885 53.814,151.952C54.335,152.982 55.42,155.126 67.802,156.193C70.895,156.46 74.064,156.591 77.054,156.591C80.736,156.591 84.148,156.391 86.809,155.996C90.295,155.478 94.366,154.468 94.913,151.229C95.172,149.694 94.814,147.891 94.05,145.885C93.586,145.892 93.11,145.908 92.653,145.908C91.189,145.908 89.779,145.863 88.393,145.799Z" style="fill:rgb(29,9,41);fill-rule:nonzero;"/>
        </g>
        <g transform="matrix(1,0,0,1,55,54.1316)">
            <path d="M169.881,66.551C169.48,65.285 168.167,64.533 166.854,64.817C166.374,64.921 120.419,74.708 98.191,60.954C103.908,54.276 107.025,45.903 107.025,37.065C107.025,16.628 90.191,0 69.499,0C48.807,0 31.973,16.628 31.973,37.065C31.973,43.66 33.864,50.211 37.041,55.704C38.487,54.882 40.239,54.173 41.764,53.277C40.939,51.845 39.832,49.936 39.241,48.39C37.464,47.251 36.287,45.278 36.287,43.03C36.287,41.792 36.649,40.64 37.266,39.661C37.197,38.802 37.149,37.938 37.149,37.065C37.149,19.446 51.661,5.112 69.499,5.112C87.336,5.112 101.848,19.446 101.848,37.065C101.848,45.558 98.51,53.554 92.449,59.582C91.925,60.103 91.653,60.821 91.702,61.553C91.751,62.285 92.117,62.962 92.706,63.409C113.172,78.964 154.975,72.304 165.559,70.294C167.156,76.665 170.309,94.453 161.074,110.57C153.625,123.569 139.879,132.548 120.217,137.256C94.261,143.471 72.717,141.491 57.911,131.53C43.695,121.966 39.867,108.327 38.85,101.048C36.937,87.352 43.005,77.864 48.232,72.424C46.233,72.297 44.163,72.053 42.032,71.672C36.782,78.145 31.821,88.125 33.723,101.746C35.652,115.562 43.406,127.958 54.997,135.756C56.813,136.978 58.887,138.189 61.219,139.33C62.839,140.123 64.593,140.877 66.478,141.578C72.382,143.772 79.619,145.402 88.391,145.807C89.778,145.871 91.188,145.916 92.652,145.916C93.109,145.916 93.584,145.9 94.049,145.893C96.138,145.864 98.305,145.766 100.552,145.594C103.343,145.381 106.249,145.059 109.292,144.602C113.136,144.023 117.177,143.244 121.437,142.224C122.556,141.956 123.649,141.668 124.733,141.373C126.487,140.896 128.19,140.382 129.852,139.836C146.527,134.353 158.532,125.385 165.578,113.089C177.245,92.728 171.209,70.751 169.881,66.551Z" style="fill:rgb(29,9,41);fill-rule:nonzero;"/>
        </g>
        <g transform="matrix(1,0,0,1,55,54.1316)">
            <path d="M66.913,50.271C62.863,50.271 59.58,47.029 59.58,43.028C59.58,39.028 62.863,35.786 66.913,35.786C70.962,35.786 74.245,39.028 74.245,43.028C74.245,47.029 70.962,50.271 66.913,50.271ZM165.56,70.293C154.976,72.303 113.173,78.962 92.708,63.408C92.119,62.961 91.753,62.284 91.704,61.552C91.654,60.82 91.926,60.102 92.45,59.581C98.512,53.553 101.85,45.556 101.85,37.064C101.85,19.445 87.338,5.111 69.5,5.111C68.5,5.111 64.766,5.019 60.67,6.312C55.209,7.899 51.896,10.164 51.834,10.317C43.002,16.028 37.151,25.881 37.151,37.064C37.151,37.937 37.198,38.8 37.268,39.659C38.41,37.848 40.438,36.638 42.758,36.638C46.331,36.638 49.228,39.499 49.228,43.028C49.228,46.558 46.331,49.419 42.758,49.419C41.461,49.419 40.255,49.038 39.243,48.389C39.834,49.935 40.941,51.844 41.765,53.276C44.843,51.466 47.579,49.137 50.381,47.292C51.51,46.547 53.032,46.794 53.863,47.855C53.994,48.019 62.177,58.091 78.804,59.656C79.874,59.756 80.769,60.499 81.054,61.523C81.338,62.547 80.289,62.426 79.421,63.052C78.756,63.531 68.347,72.536 51.649,72.536C50.536,72.536 49.395,72.496 48.234,72.423C43.006,77.863 36.939,87.351 38.851,101.047C39.869,108.325 43.697,121.965 57.913,131.529C72.718,141.49 94.263,143.469 120.219,137.255C139.88,132.547 153.626,123.568 161.075,110.569C170.311,94.452 167.158,76.663 165.56,70.293Z" style="fill:rgb(242,196,76);fill-rule:nonzero;"/>
        </g>
        <g transform="matrix(1,0,0,1,55,54.1316)">
            <path d="M66.914,50.274C70.964,50.274 74.246,47.032 74.246,43.031C74.246,39.031 70.964,35.789 66.914,35.789C62.864,35.789 59.581,39.031 59.581,43.031C59.581,47.032 62.864,50.274 66.914,50.274Z" style="fill:rgb(29,9,41);fill-rule:nonzero;"/>
        </g>
        <g transform="matrix(1,0,0,1,55,54.1316)">
            <path d="M49.226,43.024C49.226,39.495 46.329,36.634 42.756,36.634C40.436,36.634 38.408,37.844 37.266,39.655C36.649,40.634 36.286,41.786 36.286,43.024C36.286,45.272 37.464,47.246 39.241,48.385C40.253,49.034 41.459,49.415 42.756,49.415C46.329,49.415 49.226,46.554 49.226,43.024Z" style="fill:rgb(29,9,41);fill-rule:nonzero;"/>
        </g>
        <g transform="matrix(1,0,0,1,55,54.1316)">
            <path d="M72.519,40.466C72.519,41.172 71.94,41.744 71.225,41.744C70.51,41.744 69.931,41.172 69.931,40.466C69.931,39.76 70.51,39.188 71.225,39.188C71.94,39.188 72.519,39.76 72.519,40.466Z" style="fill:white;fill-rule:nonzero;"/>
        </g>
        <g transform="matrix(1,0,0,1,55,54.1316)">
            <path d="M47.503,40.466C47.503,41.172 46.924,41.744 46.209,41.744C45.494,41.744 44.915,41.172 44.915,40.466C44.915,39.76 45.494,39.188 46.209,39.188C46.924,39.188 47.503,39.76 47.503,40.466Z" style="fill:white;fill-rule:nonzero;"/>
        </g>
        <g transform="matrix(1,0,0,1,55,54.1316)">
            <path d="M111.337,122.699C64.78,121.239 58.74,87.891 57.965,78.361C73.87,74.374 78.128,67.721 79.419,64.758C77.526,66.05 67.235,72.537 51.647,72.537C50.534,72.537 49.393,72.498 48.232,72.424C47.185,73.513 46.107,74.768 45.066,76.186C44.971,76.314 44.879,76.451 44.785,76.582C44.619,76.815 44.452,77.047 44.288,77.288C44.104,77.557 43.925,77.837 43.745,78.117C43.674,78.228 43.602,78.337 43.532,78.45C43.334,78.767 43.141,79.092 42.949,79.421C42.9,79.505 42.852,79.588 42.804,79.672C42.605,80.02 42.412,80.376 42.222,80.738C42.206,80.769 42.189,80.798 42.173,80.829C42.173,80.829 42.174,80.829 42.176,80.828C39.455,86.061 37.695,92.78 38.849,101.048C39.866,108.327 43.694,121.966 57.911,131.53C72.716,141.491 94.261,143.471 120.217,137.256C139.878,132.548 153.624,123.57 161.073,110.57C161.646,109.571 162.171,108.564 162.651,107.555C151.787,116.05 135.355,123.452 111.337,122.699Z" style="fill:rgb(191,153,53);fill-rule:nonzero;"/>
        </g>
        <g transform="matrix(1,0,0,1,55,54.1316)">
            <path d="M75.921,57.77C70.549,55.78 65.189,60.015 65.136,60.058C64.34,60.698 63.231,60.821 62.318,60.36C56.857,57.609 53.325,54.64 51.436,52.789C44.076,57.751 36.725,61.421 32.206,63.492C41.671,68.344 56.188,68.312 66.329,65.086C75.39,62.204 77.558,59.302 77.619,58.72C77.615,58.715 77.317,58.287 75.921,57.77Z" style="fill:rgb(232,146,103);fill-rule:nonzero;"/>
        </g>
        <g transform="matrix(1,0,0,1,55,54.1316)">
            <path d="M66.328,65.103C56.187,68.329 41.67,68.361 32.206,63.509C36.724,61.438 44.075,57.768 51.436,52.806C53.324,54.657 56.856,57.627 62.318,60.377C63.231,60.837 64.339,60.714 65.136,60.075C65.189,60.032 70.548,55.797 75.921,57.787C77.316,58.304 77.615,58.732 77.619,58.737C77.557,59.319 75.389,62.221 66.328,65.103ZM77.738,53C71.579,50.719 65.893,53.478 63.303,55.106C56.852,51.583 53.932,47.956 53.864,47.871C53.014,46.781 51.443,46.55 50.308,47.349C38.642,55.579 25.96,60.639 25.833,60.689C24.984,61.025 24.377,61.78 24.238,62.674C24.098,63.568 24.448,64.468 25.157,65.04C31.648,70.287 41.326,72.475 50.782,72.475C56.892,72.475 62.91,71.561 67.915,69.969C73.415,68.22 82.66,64.45 82.794,58.853C82.829,57.379 82.219,54.66 77.738,53Z" style="fill:rgb(29,9,41);fill-rule:nonzero;"/>
        </g>
        <g transform="matrix(1,0,0,1,55,54.1316)">
            <path d="M90.694,114.737C90.674,114.737 90.653,114.736 90.634,114.736C89.232,114.736 88.08,115.843 88.047,117.234C88.033,117.847 87.827,118 87.69,118.102C86.369,119.082 82.298,118.724 79.872,118.09C79.1,117.886 78.278,118.046 77.642,118.52C71.566,123.059 67.453,118.329 66.687,117.328C65.836,116.2 64.224,115.962 63.076,116.796C61.925,117.633 61.679,119.234 62.527,120.371C62.659,120.548 65.817,124.711 71.018,125.457C71.561,125.535 72.103,125.574 72.646,125.574C75.038,125.574 77.416,124.816 79.742,123.31C82.289,123.836 87.616,124.546 90.794,122.193C92.335,121.052 93.175,119.377 93.222,117.35C93.254,115.94 92.122,114.769 90.694,114.737Z" style="fill:rgb(29,9,41);fill-rule:nonzero;"/>
        </g>
        <g transform="matrix(1,0,0,1,55,54.1316)">
            <path d="M141.324,101.108C140.385,100.044 138.749,99.934 137.672,100.862C136.595,101.789 136.484,103.404 137.423,104.468C137.986,105.107 138.82,106.397 138.058,107.855C137.036,109.811 133.11,111.832 125.395,111.074C123.984,110.942 122.705,111.961 122.564,113.366C122.423,114.771 123.462,116.023 124.884,116.162C126.235,116.294 127.485,116.354 128.646,116.354C138.304,116.354 141.631,112.165 142.658,110.198C144.192,107.262 143.681,103.778 141.324,101.108Z" style="fill:rgb(29,9,41);fill-rule:nonzero;"/>
        </g>
    </g>
    <g transform="matrix(0.426613,0,0,0.480151,43.4354,78.9514)">
        <g transform="matrix(1,0,0,1,-307.863,-132.515)">
            <path d="M330.96,347.33L407.96,334.8L407.96,407.7L334.8,403.87L330.96,347.33Z" style="fill:rgb(232,187,74);fill-rule:nonzero;"/>
        </g>
        <g transform="matrix(1,0,0,1,-307.863,-132.515)">
            <path d="M407.96,334.8L500.3,341.71L495.19,405.15L407.96,407.7L407.96,334.8Z" style="fill:rgb(232,187,74);fill-rule:nonzero;"/>
        </g>
        <g transform="matrix(1,0,0,1,-307.863,-132.515)">
            <path d="M436.35,312.55L407.96,334.8L500.3,341.71L515.39,318.94L436.35,312.55Z" style="fill:rgb(242,196,77);fill-rule:nonzero;"/>
        </g>
        <g transform="matrix(1,0,0,1,-307.863,-132.515)">
            <path d="M303.08,323.03L372.4,314.59L407.96,334.8L330.96,347.33L303.08,323.03Z" style="fill:rgb(242,196,77);fill-rule:nonzero;"/>
        </g>
        <g transform="matrix(1,0,0,1,-307.863,-132.515)">
            <path d="M424.84,353.73L424.84,453.4L388.77,449.7L373.08,448.1L368.3,447.6L352.62,445.99L330.96,443.77L330.96,347.33L407.95,352.57L424.84,353.73Z" style="fill:rgb(242,196,77);fill-rule:nonzero;"/>
        </g>
        <g transform="matrix(1,0,0,1,-307.863,-132.515)">
            <path d="M500.3,341.71L500.3,438.91L471.39,444.46L457.33,447.16L424.84,453.4L424.84,353.73L500.3,341.71Z" style="fill:rgb(232,187,74);fill-rule:nonzero;"/>
        </g>
        <g transform="matrix(1,0,0,1,-307.863,-132.515)">
            <path d="M303.08,368.31L330.96,347.33L424.84,353.73L411.02,377.01L303.08,368.31Z" style="fill:rgb(243,202,94);fill-rule:nonzero;"/>
        </g>
        <g transform="matrix(1,0,0,1,-307.863,-132.515)">
            <path d="M500.3,341.71L424.84,353.73L449.4,375.73L530.23,362.17L500.3,341.71Z" style="fill:rgb(242,196,77);fill-rule:nonzero;"/>
        </g>
    </g>
    <g transform="matrix(0.266441,0,0,0.266441,-141.953,43.6069)">
        <path d="M749,167.42C749,167.42 711,165.13 715.44,191.79C715.44,191.79 714.55,196.5 718.82,198.64C718.82,198.64 718.89,196.64 722.72,197.33C724.084,197.56 725.47,197.627 726.85,197.53C728.719,197.405 730.497,196.671 731.91,195.44C733.323,194.209 742.6,191.03 746.76,173.55C746.76,173.55 749.84,169.73 749.76,168.75L743.34,171.5C743.34,171.5 745.53,176.13 743.8,179.98C743.8,179.98 743.6,171.67 742.36,171.86C742.11,171.86 739.03,173.47 739.03,173.47C739.03,173.47 742.8,181.53 739.95,187.4C739.95,187.4 741.03,177.46 737.85,174.05L733.33,176.69C733.33,176.69 737.74,185.02 734.75,191.82C734.75,191.82 735.52,181.39 732.38,177.33L728.28,180.52C728.28,180.52 732.43,188.74 729.9,194.38C729.9,194.38 729.57,182.24 727.39,181.32C727.39,181.32 723.81,184.48 723.27,185.78C723.27,185.78 726.1,191.78 724.34,194.89C724.34,194.89 723.26,186.8 722.34,186.76C722.34,186.76 718.77,192.12 718.4,195.76C718.573,192.367 719.631,189.077 721.47,186.22C719.413,186.609 717.514,187.593 716.01,189.05C714.506,190.507 716.56,185.26 722.35,184.93C722.35,184.93 725.35,180.86 726.09,180.61C726.09,180.61 720.33,180.13 716.84,181.68C716.84,181.68 719.91,178.11 727.15,179.68L731.15,176.38C731.15,176.38 723.57,175.38 720.35,176.49C720.35,176.49 724.05,173.33 732.24,175.63L736.64,173C736.64,173 730.18,171.6 726.33,172.11C726.33,172.11 730.39,169.92 737.93,172.29L741.08,170.88C741.08,170.88 736.34,169.95 734.96,169.8C733.58,169.65 733.5,169.27 733.5,169.27C736.498,168.771 739.577,169.117 742.39,170.27C745.203,171.423 749.14,167.84 749,167.42Z" style="fill:rgb(242,196,77);fill-rule:nonzero;"/>
    </g>
    <g transform="matrix(0.266441,0,0,0.266441,-141.953,43.6069)">
        <path d="M864.46,300.76C864.46,300.76 826.46,298.47 830.9,325.13C830.9,325.13 830.01,329.84 834.28,331.98C834.28,331.98 834.35,329.98 838.19,330.67C839.554,330.9 840.94,330.967 842.32,330.87C844.168,330.736 845.923,330.006 847.32,328.79C848.717,327.574 858.02,324.37 862.18,306.89C862.18,306.89 865.25,303.08 865.13,302.1L858.71,304.84C858.71,304.84 860.9,309.47 859.18,313.32C859.18,313.32 858.97,305.01 857.74,305.2C857.49,305.2 854.4,306.81 854.4,306.81C854.4,306.81 858.18,314.88 855.33,320.74C855.33,320.74 856.41,310.8 853.22,307.39L848.75,310C848.75,310 853.16,318.33 850.17,325.13C850.17,325.13 850.94,314.7 847.8,310.64L843.71,313.84C843.71,313.84 847.85,322.05 845.33,327.69C845.33,327.69 845,315.55 842.82,314.63C842.82,314.63 839.24,317.79 838.69,319.09C838.69,319.09 841.53,325.09 839.77,328.2C839.77,328.2 838.69,320.11 837.77,320.07C837.77,320.07 834.2,325.43 833.83,329.07C834.009,325.676 835.07,322.387 836.91,319.53C834.85,319.92 832.948,320.904 831.44,322.36C829.932,323.816 832,318.57 837.79,318.24C837.79,318.24 840.74,314.17 841.53,313.92C841.53,313.92 835.77,313.44 832.28,314.99C832.28,314.99 835.35,311.42 842.58,313.04L846.58,309.74C846.58,309.74 838.99,308.74 835.78,309.85C835.78,309.85 839.48,306.69 847.67,308.99L852.07,306.36C852.07,306.36 845.6,304.97 841.75,305.47C841.75,305.47 845.82,303.28 853.36,305.65L856.51,304.24C856.51,304.24 851.77,303.31 850.38,303.16C848.99,303.01 848.92,302.63 848.92,302.63C851.922,302.131 855.004,302.477 857.82,303.63C860.636,304.783 864.58,301.18 864.46,300.76Z" style="fill:rgb(242,196,77);fill-opacity:0.4;fill-rule:nonzero;"/>
    </g>
    <g transform="matrix(0.266441,0,0,0.266441,-141.953,43.6069)">
        <path d="M633.61,277.09C633.61,277.09 642.36,240 615.32,239.87C615.32,239.87 610.83,238.19 608,242.03C608,242.03 609.93,242.44 608.62,246.1C608.167,247.394 607.865,248.736 607.72,250.1C607.526,251.958 607.944,253.83 608.91,255.43C609.876,257.03 611.44,266.73 627.91,273.81C627.91,273.81 631.15,277.49 632.13,277.53L630.53,270.74C630.53,270.74 625.59,272.11 622.09,269.74C622.09,269.74 630.32,270.95 630.33,269.74C630.33,269.49 629.33,266.18 629.33,266.18C629.33,266.18 620.74,268.52 615.44,264.71C615.44,264.71 625.05,267.47 628.96,264.92L627.16,260C627.16,260 618.16,262.93 612,258.82C612,258.82 622.15,261.36 626.69,258.96L624.24,254.38C624.24,254.38 615.44,257.06 610.31,253.61C610.31,253.61 622.31,255.35 623.61,253.37C623.61,253.37 621.11,249.3 619.92,248.54C619.92,248.54 613.56,250.32 610.76,248.05C610.76,248.05 618.91,248.36 619.1,247.5C619.1,247.5 614.43,243.07 610.87,242.07C614.187,242.825 617.252,244.432 619.76,246.73C619.723,244.634 619.077,242.594 617.9,240.86C616.723,239.126 621.54,242.06 620.9,247.86C620.9,247.86 624.4,251.46 624.51,252.28C624.51,252.28 625.96,246.69 625.03,242.98C625.03,242.98 628.03,246.62 625.2,253.47L627.76,258.02C627.76,258.02 630.08,250.72 629.49,247.36C629.49,247.36 631.98,251.54 628.31,259.22L630.16,264.01C630.16,264.01 632.63,257.87 632.79,254.01C632.79,254.01 634.26,258.39 630.63,265.42L631.49,268.76C631.49,268.76 633.21,264.25 633.59,262.91C633.97,261.57 634.36,261.56 634.36,261.56C634.345,264.602 633.482,267.58 631.87,270.16C630.258,272.74 633.18,277.14 633.61,277.09Z" style="fill:rgb(242,196,77);fill-opacity:0.4;fill-rule:nonzero;"/>
    </g>
    <g transform="matrix(0.266441,0,0,0.266441,-141.953,43.6069)">
        <path d="M550.39,289.73C550.39,289.73 519.87,266.9 508.96,291.63C508.96,291.63 505.63,295.08 508.02,299.21C508.02,299.21 509.16,297.6 512.02,300.27C513.033,301.212 514.154,302.031 515.36,302.71C516.993,303.619 518.879,303.971 520.73,303.71C522.581,303.449 532.09,305.9 545.17,293.59C545.17,293.59 549.84,292.09 550.28,291.21L543.39,290C543.39,290 542.67,295.07 539.12,297.34C539.12,297.34 543.51,290.28 542.37,289.77C542.14,289.66 538.7,289.27 538.7,289.27C538.7,289.27 537.42,298.09 531.82,301.42C531.82,301.42 538.19,293.71 537.4,289.11L532.17,288.83C532.17,288.83 531.28,298.22 525.04,302.26C525.04,302.26 531.41,293.97 531.04,288.85L525.86,289.27C525.86,289.27 524.81,298.4 519.6,301.72C519.6,301.72 525.99,291.4 524.68,289.44C524.68,289.44 519.95,290.11 518.78,290.89C518.78,290.89 517.87,297.43 514.67,299.09C514.67,299.09 518.22,291.74 517.5,291.23C517.5,291.23 511.57,293.74 509.24,296.6C511.255,293.862 513.951,291.697 517.06,290.32C515.126,289.516 512.999,289.294 510.94,289.68C508.881,290.066 513.48,286.82 518.5,289.73C518.5,289.73 523.2,287.96 524,288.18C524,288.18 519.45,284.61 515.68,283.99C515.68,283.99 520.22,282.69 525.37,287.99L530.56,287.46C530.56,287.46 524.79,282.46 521.48,281.62C521.48,281.62 526.31,281.01 531.88,287.43L537,287.66C537,287.66 532.37,282.94 528.88,281.24C528.88,281.24 533.47,281.64 538.47,287.77L541.88,288.32C541.88,288.32 538.43,284.94 537.35,284.06C536.27,283.18 536.42,282.81 536.42,282.81C539.202,284.042 541.587,286.022 543.31,288.53C545.033,291.038 550.26,290.14 550.39,289.73Z" style="fill:rgb(242,196,77);fill-opacity:0.1;fill-rule:nonzero;"/>
    </g>
    <g transform="matrix(0.266441,0,0,0.266441,-136.659,74.5311)">
        <path d="M652,77.62C652,77.62 621.48,54.78 610.57,79.52C610.57,79.52 607.24,82.97 609.63,87.1C609.63,87.1 610.77,85.49 613.63,88.16C614.648,89.098 615.773,89.913 616.98,90.59C618.613,91.5 620.499,91.851 622.35,91.59C624.201,91.329 633.71,93.78 646.79,81.46C646.79,81.46 651.46,79.97 651.89,79.08L645,77.89C645,77.89 644.29,82.96 640.73,85.23C640.73,85.23 645.13,78.17 643.99,77.66C643.76,77.55 640.32,77.16 640.32,77.16C640.32,77.16 639,86 633.4,89.31C633.4,89.31 639.76,81.6 638.98,77L633.75,76.72C633.75,76.72 632.85,86.11 626.62,90.14C626.62,90.14 632.99,81.85 632.62,76.73L627.45,77.15C627.45,77.15 626.39,86.29 621.18,89.61C621.18,89.61 627.58,79.29 626.27,77.33C626.27,77.33 621.54,78 620.37,78.78C620.37,78.78 619.46,85.32 616.26,86.98C616.26,86.98 619.81,79.63 619.09,79.11C619.09,79.11 613.16,81.63 610.83,84.49C612.842,81.749 615.539,79.583 618.65,78.21C616.714,77.4 614.582,77.178 612.52,77.57C610.458,77.962 615.07,74.71 620.09,77.62C620.09,77.62 624.79,75.84 625.59,76.07C625.59,76.07 621.04,72.5 617.27,71.87C617.27,71.87 621.8,70.58 626.95,75.87L632.14,75.34C632.14,75.34 626.38,70.34 623.06,69.49C623.06,69.49 627.89,68.89 633.47,75.31L638.59,75.53C638.59,75.53 633.96,70.81 630.46,69.12C630.46,69.12 635.06,69.52 640.06,75.65L643.46,76.2C643.46,76.2 640,72.86 638.92,72C637.84,71.14 637.99,70.76 637.99,70.76C640.773,71.99 643.159,73.971 644.88,76.48C646.601,78.989 651.83,78 652,77.62Z" style="fill:rgb(242,196,77);fill-opacity:0.4;fill-rule:nonzero;"/>
    </g>
    <g transform="matrix(0.266441,0,0,0.266441,-141.953,43.6069)">
        <path d="M768.62,106.55C768.62,106.55 756.42,70.44 733.41,84.63C733.41,84.63 728.71,85.63 728.34,90.34C728.34,90.34 730.19,89.66 731.01,93.46C731.315,94.812 731.774,96.124 732.38,97.37C733.206,99.047 734.554,100.412 736.22,101.26C737.886,102.108 744.34,109.51 762.1,106.78C762.1,106.78 766.79,108.2 767.65,107.71L762.65,102.8C762.65,102.8 759.19,106.57 754.97,106.42C754.97,106.42 762.6,103.1 761.97,102.03C761.84,101.82 759.23,99.55 759.23,99.55C759.23,99.55 753.17,106.08 746.67,105.65C746.67,105.65 756.28,102.91 758.24,98.65L754.1,95.46C754.1,95.46 748.04,102.68 740.61,102.46C740.61,102.46 750.61,99.25 753.14,94.81L748.64,92.22C748.64,92.22 742.64,99.15 736.42,98.93C736.42,98.93 747.54,94.06 747.57,91.7C747.57,91.7 743.3,89.57 741.89,89.55C741.89,89.55 737.43,94.42 733.89,93.98C733.89,93.98 740.97,89.93 740.67,89.1C740.67,89.1 734.37,87.81 730.82,88.85C734.031,87.732 737.479,87.474 740.82,88.1C739.679,86.339 738.049,84.949 736.13,84.1C734.211,83.251 739.85,83.19 742.34,88.43C742.34,88.43 747.22,89.64 747.74,90.27C747.74,90.27 746.02,84.76 743.27,82.1C743.27,82.1 747.74,83.61 748.96,90.92L753.54,93.42C753.54,93.42 751.65,86.01 749.37,83.42C749.37,83.42 753.7,85.66 754.64,94.11L758.74,97.2C758.74,97.2 757.6,90.68 755.68,87.3C755.68,87.3 759.24,90.24 759.88,98.13L762.37,100.51C762.37,100.51 761.45,95.77 761.07,94.43C760.69,93.09 761,93 761,93C762.59,95.594 763.431,98.578 763.43,101.62C763.429,104.662 768.27,106.81 768.62,106.55Z" style="fill:rgb(242,196,77);fill-opacity:0.4;fill-rule:nonzero;"/>
    </g>
    <g transform="matrix(0.266441,0,0,0.266441,-141.953,43.6069)">
        <path d="M689,108.33C689,108.33 651.1,104.11 654.23,131C654.23,131 653.1,135.66 657.23,138C657.23,138 657.4,136 661.23,136.9C662.584,137.191 663.966,137.329 665.35,137.31C667.22,137.276 669.028,136.634 670.5,135.48C671.972,134.326 681.41,131.61 686.5,114.36C686.5,114.36 689.76,110.71 689.69,109.72L683.14,112.14C683.14,112.14 685.14,116.87 683.14,120.63C683.14,120.63 683.35,112.32 682.14,112.45C681.89,112.45 678.73,113.89 678.73,113.89C678.73,113.89 682.09,122.14 678.95,127.89C678.95,127.89 680.53,118.01 677.52,114.45L672.87,116.85C672.87,116.85 676.87,125.4 673.52,132.04C673.52,132.04 674.82,121.66 671.89,117.45L667.64,120.45C667.64,120.45 671.36,128.86 668.55,134.37C668.55,134.37 668.84,122.23 666.71,121.2C666.71,121.2 662.97,124.2 662.36,125.44C662.36,125.44 664.89,131.54 662.98,134.59C662.98,134.59 662.31,126.46 661.43,126.38C661.43,126.38 657.59,131.55 657.03,135.2C657.377,131.816 658.604,128.582 660.59,125.82C658.515,126.107 656.568,126.993 654.99,128.37C653.412,129.747 655.73,124.62 661.53,124.58C661.53,124.58 664.68,120.67 665.53,120.46C665.53,120.46 659.8,119.69 656.23,121.06C656.23,121.06 659.48,117.64 666.62,119.63L670.83,116.54C670.83,116.54 663.22,115 660,116C660,116 663.86,113 671.92,115.75L676.45,113.34C676.45,113.34 670.06,111.62 666.19,111.93C666.19,111.93 670.36,109.93 677.77,112.7L680.99,111.45C680.99,111.45 676.3,110.28 674.92,110.06C673.54,109.84 673.49,109.46 673.49,109.46C676.513,109.113 679.573,109.612 682.33,110.9C685.087,112.188 689.07,108.75 689,108.33Z" style="fill:rgb(242,196,77);fill-opacity:0.4;fill-rule:nonzero;"/>
    </g>
    <g transform="matrix(0.266441,0,0,0.266441,-141.953,43.6069)">
        <path d="M1020.6,402.5C1020.6,402.5 982.72,398.28 985.85,425.14C985.85,425.14 984.72,429.8 988.85,432.14C988.85,432.14 989.02,430.14 992.85,431.03C994.202,431.331 995.585,431.469 996.97,431.44C998.841,431.411 1000.65,430.768 1002.12,429.61C1003.59,428.452 1013.03,425.74 1018.07,408.5C1018.07,408.5 1021.33,404.84 1021.26,403.86L1014.71,406.27C1014.71,406.27 1016.71,411.01 1014.71,414.77C1014.71,414.77 1014.92,406.45 1013.71,406.59C1013.46,406.59 1010.3,408.02 1010.3,408.02C1010.3,408.02 1013.66,416.27 1010.52,422.02C1010.52,422.02 1012.1,412.15 1009.09,408.58L1004.44,410.99C1004.44,410.99 1008.44,419.54 1005.1,426.18C1005.1,426.18 1006.39,415.8 1003.46,411.58L999.21,414.58C999.21,414.58 1002.93,422.99 1000.12,428.49C1000.12,428.49 1000.41,416.35 998.28,415.33C998.28,415.33 994.55,418.33 993.93,419.57C993.93,419.57 996.47,425.67 994.55,428.72C994.55,428.72 993.88,420.59 993,420.51C993,420.51 989.16,425.68 988.6,429.33C988.947,425.946 990.174,422.712 992.16,419.95C990.084,420.232 988.136,421.119 986.56,422.5C984.984,423.881 987.3,418.74 993.1,418.7C993.1,418.7 996.26,414.79 997.1,414.59C997.1,414.59 991.37,413.81 987.8,415.18C987.8,415.18 991.05,411.77 998.2,413.76L1002.4,410.67C1002.4,410.67 994.88,409.25 991.61,410.23C991.61,410.23 995.47,407.23 1003.53,409.97L1008.06,407.57C1008.06,407.57 1001.67,405.85 997.8,406.16C997.8,406.16 1001.97,404.16 1009.38,406.93L1012.6,405.67C1012.6,405.67 1007.91,404.5 1006.53,404.29C1005.15,404.08 1005.1,403.69 1005.1,403.69C1008.12,403.337 1011.18,403.832 1013.94,405.12C1016.7,406.408 1020.7,402.93 1020.6,402.5Z" style="fill:rgb(242,196,77);fill-opacity:0.4;fill-rule:nonzero;"/>
    </g>
    <g transform="matrix(0.266441,0,0,0.266441,-141.953,43.6069)">
        <path d="M1078.51,437.88C1078.51,437.88 1040.63,433.67 1043.76,460.52C1043.76,460.52 1042.64,465.18 1046.76,467.52C1046.76,467.52 1046.93,465.52 1050.76,466.42C1052.11,466.714 1053.49,466.848 1054.87,466.82C1056.73,466.782 1058.53,466.143 1060,465C1061.47,463.857 1070.9,461.13 1075.94,443.88C1075.94,443.88 1079.21,440.23 1079.13,439.24L1072.58,441.65C1072.58,441.65 1074.58,446.39 1072.58,450.15C1072.58,450.15 1072.79,441.84 1071.58,441.97C1071.33,441.97 1068.17,443.4 1068.17,443.4C1068.17,443.4 1071.53,451.65 1068.39,457.4C1068.39,457.4 1069.97,447.53 1066.96,443.97L1062.31,446.37C1062.31,446.37 1066.31,454.92 1062.97,461.56C1062.97,461.56 1064.26,451.18 1061.33,446.97L1057.08,449.97C1057.08,449.97 1060.8,458.38 1058,463.89C1058,463.89 1058.28,451.74 1056.15,450.72C1056.15,450.72 1052.42,453.72 1051.8,454.96C1051.8,454.96 1054.34,461.06 1052.42,464.11C1052.42,464.11 1051.75,455.98 1050.87,455.9C1050.87,455.9 1047.03,461.07 1046.48,464.72C1046.83,461.338 1048.05,458.104 1050.03,455.34C1047.95,455.627 1046.01,456.513 1044.43,457.89C1042.85,459.267 1045.18,454.13 1050.98,454.1C1050.98,454.1 1054.13,450.19 1054.98,449.98C1054.98,449.98 1049.25,449.21 1045.68,450.58C1045.68,450.58 1048.93,447.16 1056.08,449.15L1060.28,446.06C1060.28,446.06 1052.76,444.64 1049.49,445.62C1049.49,445.62 1053.35,442.62 1061.41,445.37L1065.94,442.96C1065.94,442.96 1059.55,441.24 1055.68,441.55C1055.68,441.55 1059.85,439.55 1067.26,442.32L1070.48,441.07C1070.48,441.07 1065.79,439.9 1064.42,439.68C1063.05,439.46 1062.98,439.08 1062.98,439.08C1066,438.733 1069.06,439.232 1071.82,440.52C1074.58,441.808 1078.61,438.31 1078.51,437.88Z" style="fill:rgb(242,196,77);fill-opacity:0.1;fill-rule:nonzero;"/>
    </g>
    <g transform="matrix(0.266441,0,0,0.266441,-141.953,43.6069)">
        <path d="M949.94,139.87C949.94,139.87 919.42,117.04 908.51,141.77C908.51,141.77 905.18,145.22 907.57,149.35C907.57,149.35 908.71,147.74 911.57,150.41C912.583,151.352 913.704,152.171 914.91,152.85C916.543,153.759 918.429,154.11 920.28,153.85C922.131,153.59 931.64,156.04 944.73,143.73C944.73,143.73 949.39,142.23 949.83,141.35L942.96,140.11C942.96,140.11 942.24,145.18 938.69,147.45C938.69,147.45 943.08,140.39 941.94,139.88C941.71,139.77 938.28,139.38 938.28,139.38C938.28,139.38 936.99,148.2 931.39,151.53C931.39,151.53 937.76,143.82 936.97,139.22L931.74,138.94C931.74,138.94 930.85,148.33 924.61,152.37C924.61,152.37 930.99,144.08 930.61,138.96L925.43,139.38C925.43,139.38 924.43,148.51 919.17,151.83C919.17,151.83 925.57,141.51 924.25,139.55C924.25,139.55 919.52,140.22 918.35,141C918.35,141 917.45,147.54 914.25,149.2C914.25,149.2 917.79,141.85 917.07,141.34C917.07,141.34 911.14,143.85 908.81,146.71C910.825,143.972 913.521,141.807 916.63,140.43C914.696,139.626 912.569,139.404 910.51,139.79C908.451,140.176 913.06,136.93 918.08,139.84C918.08,139.84 922.77,138.07 923.57,138.29C923.57,138.29 919.02,134.72 915.25,134.1C915.25,134.1 919.79,132.8 924.94,138.1L930.13,137.57C930.13,137.57 924.37,132.57 921.05,131.73C921.05,131.73 925.88,131.12 931.45,137.54L936.58,137.77C936.58,137.77 931.94,133.05 928.45,131.35C928.45,131.35 933.05,131.75 938.04,137.88L941.45,138.43C941.45,138.43 938,135.05 936.92,134.17C935.84,133.29 936,133 936,133C938.778,134.234 941.16,136.214 942.88,138.72C944.6,141.226 949.81,140.28 949.94,139.87Z" style="fill:rgb(242,196,77);fill-opacity:0.4;fill-rule:nonzero;"/>
    </g>
    <g transform="matrix(0.266441,0,0,0.266441,-141.953,43.6069)">
        <path d="M973.52,304.69C973.52,304.69 963,268.06 939.34,281.21C939.34,281.21 934.6,281.94 934.01,286.68C934.01,286.68 935.89,286.09 936.54,289.92C936.781,291.296 937.184,292.639 937.74,293.92C938.482,295.643 939.767,297.076 941.4,298C943.033,298.924 949.14,306.6 967,304.68C967,304.68 971.62,306.3 972.5,305.86L967.77,300.72C967.77,300.72 964.14,304.34 959.94,304C959.94,304 967.7,301 967.1,299.93C966.98,299.71 964.48,297.32 964.48,297.32C964.48,297.32 958.14,303.58 951.66,302.85C951.66,302.85 961.39,300.55 963.53,296.41L959.53,293.03C959.53,293.03 953.15,299.97 945.74,299.43C945.74,299.43 955.82,296.66 958.6,292.35L954.22,289.56C954.22,289.56 947.87,296.21 941.71,295.71C941.71,295.71 953.04,291.34 953.18,288.99C953.18,288.99 949,286.67 947.59,286.59C947.59,286.59 942.92,291.25 939.37,290.65C939.37,290.65 946.63,286.92 946.37,286.08C946.37,286.08 940.13,284.51 936.54,285.38C939.791,284.416 943.238,284.316 946.54,285.09C945.482,283.281 943.918,281.82 942.04,280.89C940.162,279.96 945.8,280.14 948.04,285.49C948.04,285.49 952.85,286.91 953.35,287.57C953.35,287.57 951.88,281.98 949.25,279.21C949.25,279.21 953.65,280.91 954.54,288.27L959,290.98C959,290.98 957.44,283.48 955.28,280.84C955.28,280.84 959.5,283.27 960.07,291.75L964.07,295.02C964.07,295.02 963.22,288.46 961.46,285.02C961.46,285.02 964.89,288.12 965.17,296.02L967.55,298.52C967.55,298.52 966.85,293.74 966.55,292.38C966.25,291.02 966.55,290.83 966.55,290.83C968.03,293.49 968.74,296.51 968.6,299.55C968.46,302.59 973.16,304.93 973.52,304.69Z" style="fill:rgb(242,196,77);fill-opacity:0.4;fill-rule:nonzero;"/>
    </g>
    <g transform="matrix(0.266441,0,0,0.266441,-141.953,43.6069)">
        <path d="M739.1,387.23C739.1,387.23 718.67,355.05 699.7,374.31C699.7,374.31 695.36,376.31 696.12,381.06C696.12,381.06 697.77,379.96 699.47,383.46C700.081,384.7 700.84,385.862 701.73,386.92C702.922,388.364 704.557,389.376 706.38,389.8C708.203,390.224 716.23,395.88 732.83,389C732.83,389 737.72,389.26 738.44,388.59L732.44,384.99C732.44,384.99 729.97,389.49 725.84,390.34C725.84,390.34 732.46,385.34 731.57,384.42C731.4,384.24 728.32,382.66 728.32,382.66C728.32,382.66 723.99,390.44 717.57,391.57C717.57,391.57 726.26,386.62 727.16,382.04L722.37,379.93C722.37,379.93 718.2,388.38 710.94,389.93C710.94,389.93 719.84,384.44 721.29,379.52L716.29,378.08C716.29,378.08 712.07,386.25 706.02,387.5C706.02,387.5 715.66,380.12 715.13,377.82C715.13,377.82 710.47,376.77 709.13,377.09C709.13,377.09 705.96,382.88 702.38,383.3C702.38,383.3 708.3,377.68 707.81,376.94C707.81,376.94 701.38,377.19 698.18,379.04C701.034,377.191 704.324,376.122 707.72,375.94C706.2,374.501 704.291,373.538 702.23,373.17C700.169,372.802 705.62,371.4 709.23,375.9C709.23,375.9 714.23,375.9 714.92,376.4C714.92,376.4 711.92,371.4 708.63,369.53C708.63,369.53 713.33,369.93 716.25,376.74L721.3,378.08C721.3,378.08 717.69,371.33 714.88,369.4C714.88,369.4 719.61,370.54 722.54,378.53L727.26,380.53C727.26,380.53 724.6,374.48 721.93,371.65C721.93,371.65 726.09,373.65 728.58,381.16L731.58,382.89C731.58,382.89 729.58,378.5 728.87,377.29C728.16,376.08 728.44,375.8 728.44,375.8C730.604,377.937 732.131,380.635 732.85,383.59C733.569,386.545 738.83,387.57 739.1,387.23Z" style="fill:rgb(242,196,77);fill-opacity:0.4;fill-rule:nonzero;"/>
    </g>
    <g transform="matrix(0.266441,0,0,0.266441,-141.953,43.6069)">
        <path d="M873.37,222.81C873.37,222.81 853.94,190.02 834.37,208.68C834.37,208.68 829.97,210.58 830.59,215.32C830.59,215.32 832.26,214.26 833.86,217.81C834.432,219.072 835.154,220.26 836.01,221.35C837.158,222.824 838.762,223.879 840.57,224.35C842.378,224.821 850.22,230.73 867.03,224.35C867.03,224.35 871.91,224.76 872.65,224.11L866.78,220.33C866.78,220.33 864.18,224.74 860.02,225.47C860.02,225.47 866.79,220.64 865.94,219.73C865.76,219.54 862.74,217.86 862.74,217.86C862.74,217.86 858.17,225.51 851.74,226.44C851.74,226.44 860.58,221.76 861.61,217.22L856.89,215C856.89,215 852.46,223.33 845.15,224.66C845.15,224.66 854.22,219.45 855.82,214.58L850.88,212.98C850.88,212.98 846.4,220.98 840.32,222.08C840.32,222.08 850.18,215 849.72,212.69C849.72,212.69 845.1,211.49 843.72,211.77C843.72,211.77 840.37,217.46 836.78,217.77C836.78,217.77 842.87,212.35 842.41,211.59C842.41,211.59 835.97,211.64 832.72,213.39C835.631,211.634 838.951,210.669 842.35,210.59C840.872,209.104 838.991,208.081 836.94,207.65C834.889,207.219 840.39,205.98 843.94,210.59C843.94,210.59 848.94,210.76 849.61,211.27C849.61,211.27 846.78,206.27 843.54,204.21C843.54,204.21 848.22,204.75 850.93,211.65L855.93,213.15C855.93,213.15 852.54,206.29 849.78,204.27C849.78,204.27 854.48,205.56 857.16,213.63L861.81,215.8C861.81,215.8 859.34,209.67 856.81,206.8C856.81,206.8 860.9,208.93 863.17,216.51L866.1,218.33C866.1,218.33 864.22,213.88 863.56,212.65C862.9,211.42 863.18,211.15 863.18,211.15C865.276,213.353 866.72,216.095 867.35,219.07C867.98,222.045 873.08,223.14 873.37,222.81Z" style="fill:rgb(242,196,77);fill-rule:nonzero;"/>
    </g>
    <g transform="matrix(0.266441,0,0,0.266441,-141.953,43.6069)">
        <path d="M750.44,291.76C750.44,291.76 751.44,253.66 724.97,259.03C724.97,259.03 720.23,258.3 718.23,262.64C718.23,262.64 720.23,262.64 719.67,266.49C719.487,267.863 719.467,269.252 719.61,270.63C719.791,272.498 720.582,274.256 721.86,275.63C723.138,277.004 726.63,286.17 744.24,289.75C744.24,289.75 748.15,292.7 749.13,292.54L746.13,286.22C746.13,286.22 741.58,288.56 737.67,286.97C737.67,286.97 745.97,286.48 745.74,285.26C745.74,285.01 744.02,281.97 744.02,281.97C744.02,281.97 736.08,286.02 730.13,283.36C730.13,283.36 740.13,284.11 743.4,280.82L740.61,276.39C740.61,276.39 732.43,281.07 725.53,278.31C725.53,278.31 735.98,278.73 739.94,275.46L736.61,271.46C736.61,271.46 728.54,275.88 722.82,273.54C722.82,273.54 734.94,272.81 735.82,270.6C735.82,270.6 732.54,267.13 731.22,266.6C731.22,266.6 725.36,269.6 722.16,267.98C722.16,267.98 730.16,266.64 730.21,265.75C730.21,265.75 724.74,262.36 721.05,262.11C724.452,262.171 727.78,263.123 730.7,264.87C730.244,262.826 729.202,260.959 727.7,259.5C726.198,258.041 731.51,259.93 732.03,265.7C732.03,265.7 736.2,268.52 736.47,269.3C736.47,269.3 736.76,263.53 735.09,260.09C735.09,260.09 738.77,263.04 737.39,270.32L740.82,274.26C740.82,274.26 741.6,266.64 740.35,263.47C740.35,263.47 743.63,267.06 741.61,275.32L744.38,279.63C744.38,279.63 745.56,273.12 744.93,269.29C744.93,269.29 747.25,273.29 745.13,280.9L746.65,284C746.65,284 747.42,279.23 747.52,277.84C747.62,276.45 748,276.36 748,276.36C748.602,279.343 748.363,282.435 747.31,285.29C746.257,288.145 750,291.89 750.44,291.76Z" style="fill:rgb(242,196,77);fill-rule:nonzero;"/>
    </g>
</svg>
