<svg width="190" height="187" viewBox="0 0 190 187" fill="none" xmlns="http://www.w3.org/2000/svg">
<ellipse cx="95" cy="157" rx="95" ry="30" fill="#E3E8FF"/>
<path d="M100.311 153.832C102.494 154.577 108.112 155.486 115.607 155.699C124.372 155.953 129.793 155.042 131.237 154.238C131.149 151.655 127.332 145.539 125.445 142.513C125.192 142.107 124.957 141.731 124.733 141.366C123.648 141.661 122.556 141.95 121.436 142.218C117.177 143.238 113.136 144.016 109.291 144.595C104.936 148.358 101.385 151.989 100.311 153.832Z" fill="#E89267"/>
<path d="M124.735 141.37C124.96 141.734 125.194 142.111 125.447 142.516C127.335 145.542 131.151 151.658 131.239 154.242C129.795 155.045 124.375 155.956 115.609 155.703C108.115 155.49 102.496 154.581 100.313 153.835C101.388 151.992 104.938 148.361 109.293 144.599C106.251 145.056 103.345 145.377 100.553 145.591C93.4698 152.749 94.7259 155.237 95.2221 156.217C95.7433 157.248 96.8286 159.391 109.211 160.458C112.303 160.725 115.472 160.857 118.462 160.857C122.144 160.857 125.556 160.657 128.217 160.262C131.703 159.744 135.774 158.734 136.321 155.495C136.972 151.64 133.777 146.122 129.854 139.834C129.854 139.834 129.854 139.834 129.853 139.833C128.192 140.379 126.488 140.893 124.735 141.37Z" fill="#1D0929"/>
<path d="M58.9043 149.582C61.0879 150.328 66.7064 151.237 74.2006 151.45C82.9669 151.704 88.3863 150.793 89.8313 149.989C89.7972 148.995 89.2085 147.475 88.3922 145.812C79.6197 145.407 72.3835 143.777 66.4794 141.583C62.7809 144.886 59.8607 147.943 58.9043 149.582Z" fill="#E89267"/>
<path d="M88.3927 145.799C89.2089 147.462 89.7973 148.982 89.8315 149.976C88.3867 150.78 82.9673 151.691 74.201 151.437C66.7065 151.224 61.0883 150.315 58.9047 149.569C59.8611 147.93 62.781 144.873 66.4799 141.57C64.5947 140.869 62.8399 140.115 61.2197 139.322C51.839 148.032 53.274 150.885 53.8138 151.952C54.3354 152.982 55.4203 155.126 67.8024 156.193C70.8953 156.46 74.0637 156.591 77.0542 156.591C80.7358 156.591 84.1478 156.391 86.8088 155.996C90.2948 155.478 94.3663 154.468 94.913 151.229C95.1722 149.694 94.8139 147.891 94.0504 145.885C93.5855 145.892 93.11 145.908 92.6529 145.908C91.1891 145.908 89.7788 145.863 88.3927 145.799Z" fill="#1D0929"/>
<path d="M169.88 66.5512C169.479 65.2852 168.166 64.5328 166.853 64.8174C166.373 64.9214 120.418 74.7083 98.1908 60.954C103.908 54.2762 107.024 45.9027 107.024 37.0653C107.024 16.6276 90.1903 0 69.4984 0C48.8062 0 31.9727 16.6276 31.9727 37.0653C31.9727 43.6598 33.8635 50.2109 37.0407 55.7041C38.4867 54.8824 40.239 54.1731 41.763 53.2768C40.9383 51.8451 39.8315 49.936 39.2409 48.3901C37.4639 47.2513 36.2862 45.2778 36.2862 43.0297C36.2862 41.7916 36.6486 40.6395 37.2658 39.6605C37.1962 38.8016 37.1488 37.9378 37.1488 37.0653C37.1488 19.4463 51.6606 5.11237 69.4984 5.11237C87.3359 5.11237 101.848 19.4463 101.848 37.0653C101.848 45.5577 98.5093 53.5542 92.4482 59.5818C91.9241 60.1029 91.652 60.8209 91.7018 61.5531C91.7504 62.2853 92.1168 62.9618 92.7058 63.4092C113.171 78.9637 154.974 72.3036 165.558 70.2938C167.156 76.6645 170.309 94.4528 161.073 110.57C153.624 123.569 139.878 132.548 120.216 137.256C94.2609 143.471 72.7164 141.491 57.9107 131.53C43.6942 121.966 39.8663 108.327 38.8494 101.048C36.937 87.3521 43.004 77.8639 48.2319 72.424C46.2323 72.2971 44.1629 72.0534 42.031 71.6722C36.7815 78.1451 31.8203 88.1246 33.7224 101.746C35.6518 115.562 43.4052 127.958 54.9964 135.756C56.8129 136.978 58.8862 138.189 61.218 139.33C62.8383 140.123 64.5927 140.877 66.4779 141.578C72.3819 143.772 79.6182 145.402 88.391 145.807C89.7772 145.871 91.1874 145.916 92.651 145.916C93.108 145.916 93.5838 145.9 94.0487 145.893C96.1376 145.864 98.3049 145.766 100.551 145.594C103.343 145.381 106.249 145.059 109.291 144.602C113.135 144.023 117.177 143.244 121.436 142.224C122.556 141.956 123.649 141.668 124.733 141.373C126.486 140.896 128.19 140.382 129.851 139.836C146.527 134.353 158.532 125.385 165.577 113.089C177.245 92.728 171.209 70.7505 169.88 66.5512Z" fill="#1D0929"/>
<path d="M66.912 50.2712C62.8624 50.2712 59.5792 47.0286 59.5792 43.0283C59.5792 39.0284 62.8624 35.7858 66.912 35.7858C70.9616 35.7858 74.2445 39.0284 74.2445 43.0283C74.2445 47.0286 70.9616 50.2712 66.912 50.2712ZM165.56 70.2928C154.976 72.3025 113.173 78.9623 92.7074 63.4078C92.1187 62.9608 91.7523 62.2842 91.7034 61.552C91.6535 60.8198 91.9256 60.1015 92.4497 59.5807C98.5111 53.5531 101.85 45.5563 101.85 37.0639C101.85 19.4449 87.3378 5.11129 69.4999 5.11129C68.4991 5.11129 64.7657 5.01933 60.6691 6.31198C55.2083 7.89937 51.8959 10.1642 51.8332 10.3172C43.0012 16.028 37.1504 25.8812 37.1504 37.0639C37.1504 37.9367 37.1977 38.8002 37.2673 39.6594C38.4093 37.8479 40.4377 36.6379 42.7576 36.6379C46.3307 36.6379 49.2274 39.499 49.2274 43.0283C49.2274 46.5579 46.3307 49.4191 42.7576 49.4191C41.4605 49.4191 40.2549 49.0383 39.2424 48.389C39.833 49.9349 40.9401 51.844 41.7645 53.2757C44.8424 51.4657 47.5786 49.1367 50.38 47.292C51.5098 46.5474 53.031 46.7939 53.8626 47.8546C53.9933 48.0187 62.1765 58.0911 78.8032 59.6556C79.873 59.7562 80.7686 60.4993 81.0532 61.5232C81.3378 62.5468 80.288 62.4257 79.4204 63.0521C78.7558 63.5311 68.3467 72.5356 51.6486 72.5356C50.5355 72.5356 49.3948 72.4963 48.2335 72.4226C43.0055 77.8629 36.9385 87.3507 38.8509 101.047C39.8681 108.325 43.6961 121.965 57.9122 131.529C72.7179 141.49 94.2625 143.469 120.218 137.255C139.88 132.547 153.626 123.568 161.075 110.569C170.31 94.4517 167.157 76.6634 165.56 70.2928Z" fill="#F2C44C"/>
<path d="M66.9139 50.2742C70.9635 50.2742 74.2463 47.0316 74.2463 43.0313C74.2463 39.0314 70.9635 35.7888 66.9139 35.7888C62.8642 35.7888 59.5811 39.0314 59.5811 43.0313C59.5811 47.0316 62.8642 50.2742 66.9139 50.2742Z" fill="#1D0929"/>
<path d="M49.2258 43.0243C49.2258 39.4949 46.3291 36.6338 42.756 36.6338C40.4361 36.6338 38.4076 37.8435 37.2657 39.655C36.6485 40.634 36.2861 41.7861 36.2861 43.0243C36.2861 45.2724 37.4641 47.2459 39.2408 48.3846C40.2533 49.0342 41.4589 49.415 42.756 49.415C46.3291 49.415 49.2258 46.5536 49.2258 43.0243Z" fill="#1D0929"/>
<path d="M72.5195 40.4656C72.5195 41.1715 71.9403 41.7437 71.2256 41.7437C70.5109 41.7437 69.9316 41.1715 69.9316 40.4656C69.9316 39.7596 70.5109 39.1875 71.2256 39.1875C71.9403 39.1875 72.5195 39.7596 72.5195 40.4656Z" fill="white"/>
<path d="M47.5029 40.4656C47.5029 41.1715 46.9237 41.7437 46.209 41.7437C45.4943 41.7437 44.915 41.1715 44.915 40.4656C44.915 39.7596 45.4943 39.1875 46.209 39.1875C46.9237 39.1875 47.5029 39.7596 47.5029 40.4656Z" fill="white"/>
<path d="M111.337 122.699C64.78 121.239 58.7402 87.8914 57.965 78.3605C73.8697 74.3742 78.1281 67.7212 79.4186 64.7576C77.526 66.0502 67.2347 72.537 51.6469 72.537C50.5338 72.537 49.3931 72.4976 48.2317 72.424C47.1854 73.5129 46.1071 74.768 45.0661 76.1855C44.9714 76.314 44.8793 76.4505 44.7852 76.5815C44.6188 76.8146 44.452 77.0465 44.2878 77.288C44.1041 77.5574 43.9248 77.837 43.7451 78.1168C43.674 78.2283 43.6022 78.3373 43.5317 78.4503C43.3336 78.7667 43.1405 79.0918 42.949 79.4213C42.9004 79.5049 42.8521 79.5878 42.8038 79.6724C42.6054 80.0204 42.4117 80.3758 42.2217 80.7384C42.2057 80.769 42.1885 80.7975 42.1725 80.8285C42.1735 80.8285 42.1744 80.8285 42.1756 80.8281C39.4545 86.061 37.6947 92.7802 38.8492 101.048C39.8664 108.327 43.6944 121.966 57.9105 131.53C72.7162 141.491 94.2607 143.471 120.217 137.256C139.878 132.548 153.624 123.57 161.073 110.57C161.646 109.571 162.171 108.564 162.651 107.555C151.787 116.05 135.355 123.452 111.337 122.699Z" fill="#BF9935"/>
<path d="M75.9211 57.7702C70.5487 55.78 65.1891 60.0153 65.1361 60.0583C64.3399 60.6977 63.2315 60.8206 62.3181 60.3599C56.8567 57.6095 53.3252 54.64 51.4363 52.7888C44.0759 57.7507 36.7249 61.4212 32.2061 63.4916C41.6707 68.3442 56.1877 68.3117 66.3288 65.0861C75.3895 62.2042 77.558 59.3022 77.6194 58.7198C77.615 58.7149 77.3169 58.287 75.9211 57.7702Z" fill="#E89267"/>
<path d="M66.3288 65.1029C56.1873 68.3285 41.6706 68.361 32.206 63.5087C36.7248 61.438 44.0758 57.7675 51.4362 52.8056C53.3248 54.6568 56.8566 57.6266 62.318 60.3766C63.2311 60.8373 64.3399 60.7144 65.136 60.075C65.189 60.032 70.5486 55.7968 75.921 57.787C77.3168 58.3037 77.6149 58.7316 77.6193 58.7366C77.5576 59.319 75.3894 62.221 66.3288 65.1029ZM77.7388 53C71.5796 50.7188 65.8934 53.4778 63.3036 55.106C56.8522 51.5826 53.9323 47.9561 53.8649 47.8713C53.0148 46.7805 51.4437 46.5495 50.3081 47.3489C38.6429 55.5791 25.9609 60.6389 25.8336 60.689C24.9845 61.0253 24.377 61.7804 24.2381 62.674C24.0989 63.5681 24.4487 64.4682 25.1572 65.0403C31.649 70.2874 41.3261 72.4751 50.7823 72.4751C56.8926 72.4751 62.9102 71.5612 67.9158 69.9691C73.4155 68.2198 82.6604 64.4499 82.7943 58.8527C82.8297 57.3792 82.2197 54.6599 77.7388 53Z" fill="#1D0929"/>
<path d="M90.6935 114.737C90.6735 114.737 90.6531 114.736 90.6337 114.736C89.2319 114.736 88.0796 115.843 88.0473 117.234C88.0332 117.847 87.8266 118 87.6903 118.102C86.3693 119.082 82.2978 118.724 79.8716 118.09C79.0998 117.886 78.2776 118.046 77.6416 118.52C71.5658 123.059 67.4532 118.329 66.6865 117.328C65.8357 116.2 64.2242 115.962 63.076 116.796C61.925 117.633 61.6789 119.234 62.5274 120.371C62.6588 120.548 65.8172 124.711 71.0176 125.457C71.5608 125.535 72.1034 125.574 72.646 125.574C75.0383 125.574 77.4159 124.816 79.7418 123.31C82.2893 123.836 87.616 124.546 90.7938 122.193C92.3354 121.052 93.1752 119.377 93.2216 117.35C93.2545 115.94 92.1223 114.769 90.6935 114.737Z" fill="#1D0929"/>
<path d="M141.324 101.108C140.385 100.044 138.75 99.9337 137.673 100.862C136.595 101.789 136.484 103.404 137.424 104.468C137.987 105.107 138.82 106.397 138.059 107.855C137.037 109.811 133.11 111.832 125.395 111.074C123.984 110.942 122.705 111.961 122.565 113.366C122.424 114.771 123.463 116.023 124.885 116.162C126.236 116.294 127.486 116.354 128.647 116.354C138.305 116.354 141.632 112.165 142.658 110.198C144.192 107.262 143.681 103.778 141.324 101.108Z" fill="#1D0929"/>
</svg>
