<svg width="235" height="310" viewBox="0 0 235 310" fill="none" xmlns="http://www.w3.org/2000/svg">
<ellipse cx="140" cy="280" rx="95" ry="30" fill="#E3E8FF"/>
<path d="M138.827 16.0153C133.645 14.4479 116.325 10.1117 99.1049 15.7388C86.2248 19.956 73.3974 29.7465 65.758 50.4534C59.6272 67.0586 51.3982 77.3604 41.3009 81.0834C30.9902 84.8783 21.1071 80.7729 16.1306 77.9853C15.7788 77.7842 15.3727 77.7015 14.9719 77.7493C14.5712 77.7971 14.1969 77.973 13.9043 78.251C13.6009 78.5249 13.3938 78.8899 13.3135 79.2923C13.2332 79.6946 13.2839 80.1129 13.4583 80.4854L37.5277 133.2C37.6809 133.534 37.9249 133.818 38.2313 134.019C38.5376 134.22 38.894 134.331 39.2592 134.338C43.9129 134.414 60.4421 134.18 74.2999 127.852C82.4278 124.141 89.6468 118.328 92.9934 109.248C93.0274 109.156 93.0578 109.074 93.095 108.989C99.1643 93.2136 124.382 84.3699 143.653 79.8201C151.625 77.938 158.575 76.787 162.732 76.1855C163.264 76.1077 163.77 75.9066 164.21 75.5981C164.65 75.2896 165.012 74.8822 165.267 74.4081C165.523 73.9339 165.664 73.4061 165.681 72.8662C165.698 72.3263 165.59 71.7892 165.365 71.2974L140.993 17.919C140.786 17.4661 140.486 17.062 140.113 16.7338C139.739 16.4055 139.301 16.1606 138.827 16.0153Z" fill="#F2C44C"/>
<path d="M84.6711 235.246C83.5853 235.741 82.3396 235.766 81.2075 235.318C80.0753 234.869 79.1491 233.984 78.6321 232.854L8.59109 79.4566C8.07509 78.3265 8.01152 77.0458 8.41432 75.8961C8.81713 74.7465 9.65333 73.8222 10.739 73.3265C11.8246 72.8308 13.0708 72.8043 14.2034 73.2529C15.3359 73.7015 16.262 74.5884 16.778 75.7185L86.819 229.116C87.3336 230.246 87.3965 231.527 86.9939 232.676C86.5912 233.825 85.7558 234.75 84.6711 235.246Z" fill="#1D0929"/>
<path d="M145.311 276.832C147.494 277.577 153.112 278.486 160.607 278.699C169.372 278.953 174.793 278.042 176.237 277.238C176.149 274.655 172.332 268.539 170.445 265.513C170.192 265.107 169.957 264.731 169.733 264.366C168.648 264.661 167.556 264.95 166.436 265.218C162.177 266.238 158.136 267.016 154.291 267.595C149.936 271.358 146.385 274.989 145.311 276.832Z" fill="#E89267"/>
<path d="M169.735 264.37C169.96 264.734 170.194 265.111 170.447 265.516C172.335 268.542 176.151 274.658 176.239 277.242C174.795 278.045 169.375 278.956 160.609 278.703C153.115 278.49 147.496 277.581 145.313 276.835C146.388 274.992 149.938 271.361 154.293 267.599C151.251 268.056 148.345 268.377 145.553 268.591C138.47 275.749 139.726 278.237 140.222 279.217C140.743 280.248 141.829 282.391 154.211 283.458C157.303 283.725 160.472 283.857 163.462 283.857C167.144 283.857 170.556 283.657 173.217 283.262C176.703 282.744 180.774 281.734 181.321 278.495C181.972 274.64 178.777 269.122 174.854 262.834C174.854 262.834 174.854 262.834 174.853 262.833C173.192 263.379 171.488 263.893 169.735 264.37Z" fill="#1D0929"/>
<path d="M103.904 272.582C106.087 273.328 111.706 274.237 119.2 274.45C127.966 274.704 133.386 273.793 134.831 272.989C134.797 271.995 134.208 270.475 133.392 268.812C124.619 268.407 117.383 266.777 111.479 264.583C107.78 267.886 104.86 270.943 103.904 272.582Z" fill="#E89267"/>
<path d="M133.393 268.799C134.209 270.462 134.797 271.982 134.831 272.976C133.387 273.78 127.967 274.691 119.201 274.437C111.706 274.224 106.088 273.315 103.905 272.569C104.861 270.93 107.781 267.873 111.48 264.57C109.595 263.869 107.84 263.115 106.22 262.322C96.839 271.032 98.274 273.885 98.8138 274.952C99.3354 275.982 100.42 278.126 112.802 279.193C115.895 279.46 119.064 279.591 122.054 279.591C125.736 279.591 129.148 279.391 131.809 278.996C135.295 278.478 139.366 277.468 139.913 274.229C140.172 272.694 139.814 270.891 139.05 268.885C138.585 268.892 138.11 268.908 137.653 268.908C136.189 268.908 134.779 268.863 133.393 268.799Z" fill="#1D0929"/>
<path d="M214.881 189.551C214.48 188.285 213.167 187.533 211.854 187.817C211.374 187.921 165.419 197.708 143.191 183.954C148.908 177.276 152.025 168.903 152.025 160.065C152.025 139.628 135.191 123 114.499 123C93.8067 123 76.9731 139.628 76.9731 160.065C76.9731 166.66 78.8639 173.211 82.0412 178.704C83.4872 177.882 85.2394 177.173 86.7635 176.277C85.9388 174.845 84.8319 172.936 84.2414 171.39C82.4644 170.251 81.2867 168.278 81.2867 166.03C81.2867 164.792 81.6491 163.639 82.2663 162.66C82.1967 161.802 82.1493 160.938 82.1493 160.065C82.1493 142.446 96.661 128.112 114.499 128.112C132.336 128.112 146.848 142.446 146.848 160.065C146.848 168.558 143.51 176.554 137.449 182.582C136.925 183.103 136.652 183.821 136.702 184.553C136.751 185.285 137.117 185.962 137.706 186.409C158.172 201.964 199.975 195.304 210.559 193.294C212.156 199.664 215.309 217.453 206.074 233.57C198.625 246.569 184.879 255.548 165.217 260.256C139.261 266.471 117.717 264.491 102.911 254.53C88.6947 244.966 84.8667 231.327 83.8499 224.048C81.9374 210.352 88.0045 200.864 93.2324 195.424C91.2328 195.297 89.1634 195.053 87.0315 194.672C81.782 201.145 76.8208 211.125 78.7229 224.746C80.6522 238.562 88.4057 250.958 99.9969 258.756C101.813 259.978 103.887 261.189 106.218 262.33C107.839 263.123 109.593 263.877 111.478 264.578C117.382 266.772 124.619 268.402 133.392 268.807C134.778 268.871 136.188 268.916 137.651 268.916C138.108 268.916 138.584 268.9 139.049 268.893C141.138 268.864 143.305 268.766 145.552 268.594C148.343 268.381 151.249 268.059 154.292 267.602C158.136 267.023 162.177 266.244 166.437 265.224C167.556 264.956 168.649 264.668 169.733 264.373C171.487 263.896 173.19 263.382 174.852 262.836C191.527 257.353 203.532 248.385 210.578 236.089C222.245 215.728 216.209 193.751 214.881 189.551Z" fill="#1D0929"/>
<path d="M111.912 173.271C107.863 173.271 104.58 170.029 104.58 166.028C104.58 162.028 107.863 158.786 111.912 158.786C115.962 158.786 119.245 162.028 119.245 166.028C119.245 170.029 115.962 173.271 111.912 173.271ZM210.56 193.293C199.976 195.302 158.173 201.962 137.708 186.408C137.119 185.961 136.753 185.284 136.704 184.552C136.654 183.82 136.926 183.101 137.45 182.581C143.512 176.553 146.85 168.556 146.85 160.064C146.85 142.445 132.338 128.111 114.5 128.111C113.5 128.111 109.766 128.019 105.67 129.312C100.209 130.899 96.8964 133.164 96.8337 133.317C88.0016 139.028 82.1509 148.881 82.1509 160.064C82.1509 160.937 82.1982 161.8 82.2678 162.659C83.4097 160.848 85.4382 159.638 87.7581 159.638C91.3312 159.638 94.2279 162.499 94.2279 166.028C94.2279 169.558 91.3312 172.419 87.7581 172.419C86.461 172.419 85.2554 172.038 84.2429 171.389C84.8335 172.935 85.9406 174.844 86.765 176.276C89.8429 174.466 92.5791 172.137 95.3805 170.292C96.5102 169.547 98.0315 169.794 98.8631 170.855C98.9938 171.019 107.177 181.091 123.804 182.656C124.873 182.756 125.769 183.499 126.054 184.523C126.338 185.547 125.289 185.426 124.421 186.052C123.756 186.531 113.347 195.536 96.6491 195.536C95.536 195.536 94.3953 195.496 93.2339 195.423C88.006 200.863 81.939 210.351 83.8514 224.047C84.8686 231.325 88.6966 244.965 102.913 254.529C117.718 264.49 139.263 266.469 165.219 260.255C184.88 255.547 198.626 246.568 206.075 233.569C215.311 217.452 212.158 199.663 210.56 193.293Z" fill="#F2C44C"/>
<path d="M111.914 173.274C115.963 173.274 119.246 170.032 119.246 166.031C119.246 162.031 115.963 158.789 111.914 158.789C107.864 158.789 104.581 162.031 104.581 166.031C104.581 170.032 107.864 173.274 111.914 173.274Z" fill="#1D0929"/>
<path d="M94.2258 166.024C94.2258 162.495 91.3291 159.634 87.756 159.634C85.4361 159.634 83.4076 160.843 82.2657 162.655C81.6485 163.634 81.2861 164.786 81.2861 166.024C81.2861 168.272 82.4641 170.246 84.2408 171.385C85.2533 172.034 86.4589 172.415 87.756 172.415C91.3291 172.415 94.2258 169.554 94.2258 166.024Z" fill="#1D0929"/>
<path d="M117.519 163.466C117.519 164.171 116.94 164.744 116.225 164.744C115.51 164.744 114.931 164.171 114.931 163.466C114.931 162.76 115.51 162.187 116.225 162.187C116.94 162.187 117.519 162.76 117.519 163.466Z" fill="white"/>
<path d="M92.5029 163.466C92.5029 164.171 91.9237 164.744 91.209 164.744C90.4943 164.744 89.915 164.171 89.915 163.466C89.915 162.76 90.4943 162.187 91.209 162.187C91.9237 162.187 92.5029 162.76 92.5029 163.466Z" fill="white"/>
<path d="M156.337 245.699C109.78 244.239 103.74 210.891 102.965 201.361C118.87 197.374 123.128 190.721 124.419 187.758C122.526 189.05 112.235 195.537 96.6469 195.537C95.5338 195.537 94.3931 195.498 93.2317 195.424C92.1854 196.513 91.1071 197.768 90.0661 199.185C89.9714 199.314 89.8793 199.45 89.7852 199.581C89.6188 199.815 89.452 200.047 89.2878 200.288C89.1041 200.557 88.9248 200.837 88.7451 201.117C88.674 201.228 88.6022 201.337 88.5317 201.45C88.3336 201.767 88.1405 202.092 87.949 202.421C87.9004 202.505 87.8521 202.588 87.8038 202.672C87.6054 203.02 87.4117 203.376 87.2217 203.738C87.2057 203.769 87.1885 203.797 87.1725 203.828C87.1735 203.828 87.1744 203.828 87.1756 203.828C84.4545 209.061 82.6947 215.78 83.8492 224.048C84.8664 231.327 88.6944 244.966 102.91 254.53C117.716 264.491 139.261 266.471 165.217 260.256C184.878 255.548 198.624 246.57 206.073 233.57C206.646 232.571 207.171 231.564 207.651 230.555C196.787 239.05 180.355 246.452 156.337 245.699Z" fill="#BF9935"/>
<path d="M120.921 180.77C115.549 178.78 110.189 183.015 110.136 183.058C109.34 183.698 108.232 183.821 107.318 183.36C101.857 180.61 98.3252 177.64 96.4363 175.789C89.0759 180.751 81.7249 184.421 77.2061 186.492C86.6707 191.344 101.188 191.312 111.329 188.086C120.389 185.204 122.558 182.302 122.619 181.72C122.615 181.715 122.317 181.287 120.921 180.77Z" fill="#E89267"/>
<path d="M111.328 188.103C101.187 191.328 86.6701 191.361 77.2055 186.509C81.7243 184.438 89.0753 180.767 96.4357 175.806C98.3243 177.657 101.856 180.627 107.318 183.377C108.231 183.837 109.339 183.714 110.136 183.075C110.189 183.032 115.548 178.797 120.921 180.787C122.316 181.304 122.614 181.732 122.619 181.737C122.557 182.319 120.389 185.221 111.328 188.103ZM122.738 176C116.579 173.719 110.893 176.478 108.303 178.106C101.852 174.583 98.9318 170.956 98.8644 170.871C98.0143 169.78 96.4432 169.55 95.3076 170.349C83.6424 178.579 70.9604 183.639 70.8331 183.689C69.984 184.025 69.3765 184.78 69.2376 185.674C69.0984 186.568 69.4483 187.468 70.1567 188.04C76.6485 193.287 86.3256 195.475 95.7818 195.475C101.892 195.475 107.91 194.561 112.915 192.969C118.415 191.22 127.66 187.45 127.794 181.853C127.829 180.379 127.219 177.66 122.738 176Z" fill="#1D0929"/>
<path d="M135.694 237.737C135.673 237.737 135.653 237.736 135.634 237.736C134.232 237.736 133.08 238.843 133.047 240.234C133.033 240.847 132.827 241 132.69 241.102C131.369 242.082 127.298 241.724 124.872 241.09C124.1 240.886 123.278 241.046 122.642 241.52C116.566 246.059 112.453 241.329 111.686 240.328C110.836 239.2 109.224 238.962 108.076 239.796C106.925 240.633 106.679 242.234 107.527 243.371C107.659 243.548 110.817 247.711 116.018 248.457C116.561 248.535 117.103 248.574 117.646 248.574C120.038 248.574 122.416 247.816 124.742 246.31C127.289 246.836 132.616 247.546 135.794 245.193C137.335 244.052 138.175 242.377 138.222 240.35C138.255 238.94 137.122 237.769 135.694 237.737Z" fill="#1D0929"/>
<path d="M186.324 224.108C185.385 223.044 183.749 222.934 182.672 223.862C181.595 224.789 181.484 226.404 182.423 227.468C182.986 228.107 183.82 229.397 183.058 230.855C182.036 232.811 178.11 234.832 170.395 234.074C168.984 233.942 167.705 234.961 167.564 236.366C167.423 237.771 168.462 239.023 169.884 239.162C171.235 239.294 172.485 239.354 173.646 239.354C183.304 239.354 186.631 235.165 187.658 233.198C189.192 230.262 188.681 226.778 186.324 224.108Z" fill="#1D0929"/>
</svg>
